# xmcd
#
# Track frame offsets: 
#        150
#        9008
#        33358
#        50345
#        65498
#        86064
#        103699
#        121209
#        137791
#        155074
#        170115
#        202023
#        222851
#
# Disc length: 3326 seconds
#
# Revision: 1
# Processed by: cddbd v1.5.2PL0 Copyright (c) Steve Scherf et al.
# Submitted via: ExactAudioCopy v0.99pb5
#
DISCID=b50cfc0d
DTITLE=Lamb of God - Wrath
DYEAR=2009
DGENRE=Groove Metal
TTITLE0=The Passing
TTITLE1=In Your Words
TTITLE2=Set to Fail
TTITLE3=Contractor
TTITLE4=Fake Messiah
TTITLE5=Grace
TTITLE6=Broken Hands
TTITLE7=Dead Seeds
TTITLE8=Everything to Nothing
TTITLE9=Choke Sermon
TTITLE10=Reclamation
TTITLE11=We Die Alone
TTITLE12=Shoulder of Your God
EXTD=
EXTT0=
EXTT1=
EXTT2=
EXTT3=
EXTT4=
EXTT5=
EXTT6=
EXTT7=
EXTT8=
EXTT9=
EXTT10=
EXTT11=
EXTT12=
PLAYORDER=
